<svg height="1772.91" viewBox="0 0 1920 1772.91" width="1920" xmlns="http://www.w3.org/2000/svg"><g transform="translate(0 -6640.03)"><path d="m2390.59 8317.76c-253.36 55.48-355.61 119.71-506.98 85.69s-278.52-76.35-324.61-245.37-250.1-147.55-318.6-451.01c-38.45-170.33 145.77-334.97 254.41-485.65 84.91-117.77 121.35-295.44 302.46-387.52 412.83-209.88 610.1-82.04 610.1-82.04l658.62 818.37s-422.05 692.06-675.4 747.53z" fill="#f5f3fb"/><path d="m-115.357 7383.42c114.164 47.62 156.7 86.49 230.591 83.41s137.118-12.14 173.03-87.59 129.807-47.99 187.607-184.66c32.442-76.71-40.055-169.71-78.278-249.71-29.877-62.54-31.945-149.07-109.124-207.73-175.919-133.7-279.269-90.47-279.269-90.47l-378.187 328.22s139.467 360.91 253.63 408.53z" fill="#f7fbf3"/></g></svg>